<svg id="Layer_1" data-name="Layer 1" xmlns="http://www.w3.org/2000/svg" viewBox="0 0 17.99 18"><defs><style>.cls-1{fill:#d8ba88;}</style></defs><title>H-logo</title><circle class="cls-1" cx="9" cy="6.33" r="3.66"/><path class="cls-1" d="M10.2.5a9,9,0,1,0,9,9A9,9,0,0,0,10.2.5Zm5.95,14.24A5.67,5.67,0,0,0,14.66,12c-1.28-1.09-1.8-1.41-2.22-1.4a19.79,19.79,0,0,1-2.24.65A5,5,0,0,1,8,10.61c-.86-.27-2.56,1.45-2.91,2a7.19,7.19,0,0,0-.77,2.21,7.93,7.93,0,1,1,11.8-.12Z" transform="translate(-1.2 -0.5)"/></svg>